<svg width="18" height="18" viewBox="0 0 18 18" fill="none" xmlns="http://www.w3.org/2000/svg">
<path d="M14.1 11.8125H7.5C7.35081 11.8125 7.20774 11.7532 7.10225 11.6477C6.99676 11.5422 6.9375 11.3991 6.9375 11.25C6.9375 11.1008 6.99676 10.9577 7.10225 10.8522C7.20774 10.7467 7.35081 10.6875 7.5 10.6875H14.1C14.228 10.687 14.352 10.6429 14.4515 10.5624C14.5511 10.482 14.6202 10.37 14.6475 10.245L15.795 5.06246H4.2C4.05081 5.06246 3.90774 5.00319 3.80225 4.8977C3.69676 4.79222 3.6375 4.64914 3.6375 4.49996C3.6375 4.35077 3.69676 4.2077 3.80225 4.10221C3.90774 3.99672 4.05081 3.93746 4.2 3.93746H16.035C16.1788 3.93365 16.3216 3.96354 16.4518 4.02475C16.582 4.08596 16.6961 4.17678 16.785 4.28996C16.8678 4.39445 16.9273 4.5154 16.9597 4.64473C16.992 4.77406 16.9964 4.9088 16.9725 5.03996L15.75 10.5C15.6674 10.8749 15.4583 11.2099 15.1579 11.4489C14.8574 11.6879 14.4839 11.8163 14.1 11.8125Z" fill="#173C73"/>
<path d="M15 14.0625H6.615C6.31111 14.0616 6.01681 13.956 5.78179 13.7633C5.54678 13.5707 5.38543 13.3028 5.325 13.005L3.3225 2.99998C3.31246 2.95765 3.28855 2.91988 3.25458 2.8927C3.2206 2.86552 3.17851 2.85048 3.135 2.84998H1.5C1.35082 2.84998 1.20774 2.79072 1.10225 2.68523C0.996763 2.57974 0.9375 2.43667 0.9375 2.28748C0.9375 2.1383 0.996763 1.99523 1.10225 1.88974C1.20774 1.78425 1.35082 1.72498 1.5 1.72498H3.135C3.43371 1.72396 3.72394 1.82428 3.95825 2.00955C4.19257 2.19482 4.35711 2.45409 4.425 2.74498L6.4275 12.7875C6.43754 12.8298 6.46145 12.8676 6.49542 12.8948C6.5294 12.9219 6.57149 12.937 6.615 12.9375H15C15.1492 12.9375 15.2923 12.9967 15.3977 13.1022C15.5032 13.2077 15.5625 13.3508 15.5625 13.5C15.5625 13.6492 15.5032 13.7922 15.3977 13.8977C15.2923 14.0032 15.1492 14.0625 15 14.0625Z" fill="#173C73"/>
<path d="M7.5 16.3125C7.16624 16.3125 6.83998 16.2135 6.56248 16.0281C6.28497 15.8427 6.06868 15.5791 5.94095 15.2708C5.81323 14.9624 5.77981 14.6231 5.84493 14.2958C5.91004 13.9684 6.07076 13.6678 6.30676 13.4318C6.54276 13.1958 6.84344 13.035 7.17079 12.9699C7.49813 12.9048 7.83743 12.9382 8.14578 13.066C8.45413 13.1937 8.71768 13.41 8.90311 13.6875C9.08853 13.965 9.1875 14.2912 9.1875 14.625C9.1875 15.0726 9.00971 15.5018 8.69324 15.8182C8.37678 16.1347 7.94755 16.3125 7.5 16.3125ZM7.5 14.0625C7.38875 14.0625 7.28 14.0955 7.18749 14.1573C7.09499 14.2191 7.02289 14.307 6.98032 14.4097C6.93774 14.5125 6.9266 14.6256 6.94831 14.7347C6.97001 14.8439 7.02359 14.9441 7.10225 15.0227C7.18092 15.1014 7.28115 15.155 7.39026 15.1767C7.49938 15.1984 7.61248 15.1873 7.71526 15.1447C7.81804 15.1021 7.90589 15.03 7.9677 14.9375C8.02951 14.845 8.0625 14.7363 8.0625 14.625C8.06056 14.4764 8.00067 14.3345 7.8956 14.2294C7.79053 14.1243 7.64858 14.0644 7.5 14.0625Z" fill="#173C73"/>
<path d="M13.125 16.3125C12.7912 16.3125 12.465 16.2135 12.1875 16.0281C11.91 15.8427 11.6937 15.5791 11.566 15.2708C11.4382 14.9624 11.4048 14.6231 11.4699 14.2958C11.535 13.9684 11.6958 13.6678 11.9318 13.4318C12.1678 13.1958 12.4684 13.035 12.7958 12.9699C13.1231 12.9048 13.4624 12.9382 13.7708 13.066C14.0791 13.1937 14.3427 13.41 14.5281 13.6875C14.7135 13.965 14.8125 14.2912 14.8125 14.625C14.8125 15.0726 14.6347 15.5018 14.3182 15.8182C14.0018 16.1347 13.5726 16.3125 13.125 16.3125ZM13.125 14.0625C13.0137 14.0625 12.905 14.0955 12.8125 14.1573C12.72 14.2191 12.6479 14.307 12.6053 14.4097C12.5627 14.5125 12.5516 14.6256 12.5733 14.7347C12.595 14.8439 12.6486 14.9441 12.7273 15.0227C12.8059 15.1014 12.9061 15.155 13.0153 15.1767C13.1244 15.1984 13.2375 15.1873 13.3403 15.1447C13.443 15.1021 13.5309 15.03 13.5927 14.9375C13.6545 14.845 13.6875 14.7363 13.6875 14.625C13.6856 14.4764 13.6257 14.3345 13.5206 14.2294C13.4155 14.1243 13.2736 14.0644 13.125 14.0625Z" fill="#173C73"/>
</svg>
