<svg width="15" height="15" viewBox="0 0 15 15" fill="none" xmlns="http://www.w3.org/2000/svg">
<path d="M11.75 9.84353H6.25C6.12568 9.84353 6.00645 9.79415 5.91854 9.70624C5.83064 9.61833 5.78125 9.4991 5.78125 9.37478C5.78125 9.25046 5.83064 9.13123 5.91854 9.04333C6.00645 8.95542 6.12568 8.90603 6.25 8.90603H11.75C11.8567 8.90564 11.96 8.86889 12.0429 8.80185C12.1259 8.73481 12.1835 8.64148 12.2063 8.53728L13.1625 4.21853H3.5C3.37568 4.21853 3.25645 4.16915 3.16854 4.08124C3.08064 3.99333 3.03125 3.8741 3.03125 3.74978C3.03125 3.62546 3.08064 3.50623 3.16854 3.41832C3.25645 3.33042 3.37568 3.28103 3.5 3.28103H13.3625C13.4824 3.27786 13.6013 3.30277 13.7098 3.35377C13.8184 3.40478 13.9134 3.48047 13.9875 3.57478C14.0565 3.66186 14.1061 3.76265 14.133 3.87043C14.16 3.9782 14.1636 4.09048 14.1437 4.19978L13.125 8.74978C13.0562 9.06221 12.8819 9.34144 12.6315 9.5406C12.3812 9.73976 12.0699 9.84672 11.75 9.84353Z" fill="white"/>
<path d="M12.5 11.7188H5.5125C5.25926 11.7181 5.01401 11.63 4.81816 11.4695C4.62231 11.3089 4.48786 11.0857 4.4375 10.8375L2.76875 2.50001C2.76038 2.46473 2.74046 2.43326 2.71215 2.4106C2.68383 2.38795 2.64876 2.37542 2.6125 2.37501H1.25C1.12568 2.37501 1.00645 2.32562 0.918544 2.23771C0.830636 2.14981 0.78125 2.03058 0.78125 1.90626C0.78125 1.78194 0.830636 1.66271 0.918544 1.5748C1.00645 1.48689 1.12568 1.43751 1.25 1.43751H2.6125C2.86143 1.43665 3.10328 1.52025 3.29854 1.67464C3.49381 1.82904 3.63093 2.04509 3.6875 2.28751L5.35625 10.6563C5.36461 10.6915 5.38454 10.723 5.41285 10.7457C5.44117 10.7683 5.47624 10.7808 5.5125 10.7813H12.5C12.6243 10.7813 12.7435 10.8306 12.8315 10.9185C12.9194 11.0065 12.9688 11.1257 12.9688 11.25C12.9688 11.3743 12.9194 11.4936 12.8315 11.5815C12.7435 11.6694 12.6243 11.7188 12.5 11.7188Z" fill="white"/>
<path d="M6.25 13.5938C5.97187 13.5938 5.69999 13.5113 5.46873 13.3568C5.23747 13.2022 5.05723 12.9826 4.9508 12.7256C4.84436 12.4687 4.81651 12.1859 4.87077 11.9132C4.92503 11.6404 5.05896 11.3898 5.25563 11.1931C5.4523 10.9965 5.70287 10.8625 5.97565 10.8083C6.24844 10.754 6.53119 10.7819 6.78815 10.8883C7.04511 10.9947 7.26473 11.175 7.41926 11.4062C7.57378 11.6375 7.65625 11.9094 7.65625 12.1875C7.65625 12.5605 7.50809 12.9181 7.24437 13.1819C6.98065 13.4456 6.62296 13.5938 6.25 13.5938ZM6.25 11.7188C6.15729 11.7188 6.06666 11.7462 5.98958 11.7977C5.91249 11.8493 5.85241 11.9225 5.81693 12.0081C5.78145 12.0938 5.77217 12.188 5.79026 12.2789C5.80834 12.3699 5.85299 12.4534 5.91854 12.519C5.9841 12.5845 6.06762 12.6292 6.15855 12.6472C6.24948 12.6653 6.34373 12.656 6.42938 12.6206C6.51504 12.5851 6.58825 12.525 6.63975 12.4479C6.69126 12.3708 6.71875 12.2802 6.71875 12.1875C6.71713 12.0637 6.66723 11.9454 6.57967 11.8578C6.49211 11.7703 6.37382 11.7204 6.25 11.7188Z" fill="white"/>
<path d="M10.9375 13.5938C10.6594 13.5938 10.3875 13.5113 10.1562 13.3568C9.92497 13.2022 9.74473 12.9826 9.6383 12.7256C9.53186 12.4687 9.50401 12.1859 9.55827 11.9132C9.61253 11.6404 9.74646 11.3898 9.94313 11.1931C10.1398 10.9965 10.3904 10.8625 10.6632 10.8083C10.9359 10.754 11.2187 10.7819 11.4756 10.8883C11.7326 10.9947 11.9522 11.175 12.1068 11.4062C12.2613 11.6375 12.3438 11.9094 12.3438 12.1875C12.3438 12.5605 12.1956 12.9181 11.9319 13.1819C11.6681 13.4456 11.3105 13.5938 10.9375 13.5938ZM10.9375 11.7188C10.8448 11.7188 10.7542 11.7462 10.6771 11.7977C10.6 11.8493 10.5399 11.9225 10.5044 12.0081C10.469 12.0938 10.4597 12.188 10.4778 12.2789C10.4958 12.3699 10.5405 12.4534 10.606 12.519C10.6716 12.5845 10.7551 12.6292 10.8461 12.6472C10.937 12.6653 11.0312 12.656 11.1169 12.6206C11.2025 12.5851 11.2757 12.525 11.3273 12.4479C11.3788 12.3708 11.4063 12.2802 11.4063 12.1875C11.4046 12.0637 11.3547 11.9454 11.2672 11.8578C11.1796 11.7703 11.0613 11.7204 10.9375 11.7188Z" fill="white"/>
</svg>
