<svg width="15" height="15" viewBox="0 0 15 15" fill="none" xmlns="http://www.w3.org/2000/svg">
<path d="M7.5 1C3.9159 1 1 3.9159 1 7.5C1 11.0841 3.9159 14 7.5 14C11.0841 14 14 11.0841 14 7.5C14 3.9159 11.0841 1 7.5 1ZM12.6988 5.33333H10.3712C10.1667 4.01654 9.77814 2.91533 9.26291 2.15321C10.8157 2.66649 12.0721 3.8353 12.6988 5.33333ZM9.66667 7.5C9.66667 7.95403 9.64359 8.38703 9.60416 8.8H5.39584C5.35641 8.38703 5.33333 7.95403 5.33333 7.5C5.33333 7.04598 5.35641 6.61297 5.39584 6.2H9.60405C9.64359 6.61297 9.66667 7.04598 9.66667 7.5ZM7.5 13.1333C6.71762 13.1333 5.86861 11.7821 5.51003 9.66667H9.48998C9.13139 11.7821 8.28238 13.1333 7.5 13.1333ZM5.51003 5.33333C5.86861 3.21791 6.71762 1.86667 7.5 1.86667C8.28238 1.86667 9.13139 3.21791 9.48998 5.33333H5.51003ZM5.73709 2.15321C5.22186 2.91544 4.83316 4.01654 4.62884 5.33333H2.30119C2.9279 3.8353 4.18435 2.66649 5.73709 2.15321ZM2.02408 6.2H4.52452C4.4879 6.61828 4.46667 7.05139 4.46667 7.5C4.46667 7.94861 4.4879 8.38173 4.52463 8.8H2.02408C1.92484 8.38183 1.86667 7.94807 1.86667 7.5C1.86667 7.05193 1.92484 6.61817 2.02408 6.2ZM2.30119 9.66667H4.62873C4.83316 10.9835 5.22175 12.0847 5.73698 12.8468C4.18424 12.3335 2.9279 11.1647 2.30119 9.66667V9.66667ZM9.26291 12.8468C9.77814 12.0846 10.1668 10.9835 10.3712 9.66667H12.6987C12.0721 11.1647 10.8158 12.3335 9.26291 12.8468ZM12.9759 8.8H10.4754C10.5121 8.38173 10.5333 7.94861 10.5333 7.5C10.5333 7.05139 10.5121 6.61828 10.4754 6.2H12.9758C13.0752 6.61817 13.1332 7.05193 13.1332 7.5C13.1332 7.94807 13.0752 8.38183 12.9759 8.8V8.8Z" fill="white"/>
</svg>
