<svg width="18" height="18" viewBox="0 0 18 18" fill="none" xmlns="http://www.w3.org/2000/svg">
<path d="M9.00001 1.20032C4.69909 1.20032 1.20001 4.6994 1.20001 9.00032C1.20001 13.3012 4.69909 16.8003 9.00001 16.8003C13.3009 16.8003 16.8 13.3012 16.8 9.00032C16.8 4.6994 13.3009 1.20032 9.00001 1.20032ZM15.2386 6.40032H12.4454C12.2001 4.82017 11.7338 3.49872 11.1155 2.58417C12.9788 3.20011 14.4865 4.60268 15.2386 6.40032ZM11.6 9.00032C11.6 9.54515 11.5723 10.0648 11.525 10.5603H6.47502C6.4277 10.0648 6.40001 9.54515 6.40001 9.00032C6.40001 8.45549 6.4277 7.93588 6.47502 7.44032H11.5249C11.5723 7.93588 11.6 8.45549 11.6 9.00032ZM9.00001 15.7603C8.06115 15.7603 7.04234 14.1388 6.61204 11.6003H11.388C10.9577 14.1388 9.93887 15.7603 9.00001 15.7603ZM6.61204 6.40032C7.04234 3.86181 8.06115 2.24032 9.00001 2.24032C9.93887 2.24032 10.9577 3.86181 11.388 6.40032H6.61204ZM6.88452 2.58417C6.26624 3.49885 5.7998 4.82017 5.55462 6.40032H2.76144C3.51349 4.60268 5.02123 3.20011 6.88452 2.58417ZM2.4289 7.44032H5.42943C5.38549 7.94225 5.36001 8.46199 5.36001 9.00032C5.36001 9.53865 5.38549 10.0584 5.42956 10.5603H2.4289C2.30982 10.0585 2.24001 9.538 2.24001 9.00032C2.24001 8.46264 2.30982 7.94212 2.4289 7.44032ZM2.76144 11.6003H5.55449C5.7998 13.1805 6.26611 14.5019 6.88439 15.4165C5.0211 14.8005 3.51349 13.398 2.76144 11.6003V11.6003ZM11.1155 15.4165C11.7338 14.5018 12.2002 13.1805 12.4454 11.6003H15.2385C14.4865 13.398 12.9789 14.8005 11.1155 15.4165ZM15.5711 10.5603H12.5705C12.6145 10.0584 12.64 9.53865 12.64 9.00032C12.64 8.46199 12.6145 7.94225 12.5705 7.44032H15.571C15.6902 7.94212 15.7599 8.46264 15.7599 9.00032C15.7599 9.538 15.6902 10.0585 15.5711 10.5603V10.5603Z" fill="#173C73"/>
</svg>
