<svg width="31" height="31" viewBox="0 0 31 31" fill="none" xmlns="http://www.w3.org/2000/svg">
<path d="M19.6213 12.9538L17.0977 15.4774V4.35999C17.0977 3.48107 16.3852 2.76855 15.5062 2.76855C14.6273 2.76855 13.9148 3.48107 13.9148 4.35999V15.4774L11.3911 12.9538C10.7696 12.3322 9.76197 12.3322 9.14047 12.9537C8.51897 13.5752 8.51897 14.5829 9.14047 15.2043L14.3809 20.4449C14.6793 20.7433 15.0842 20.911 15.5062 20.911C15.9283 20.911 16.3331 20.7433 16.6316 20.4449L21.872 15.2045C22.4934 14.5829 22.4934 13.5752 21.872 12.9538C21.2504 12.3323 20.2429 12.3323 19.6213 12.9538Z" fill="white"/>
<path d="M4.04788 25.6852C4.04788 24.8063 4.7604 24.0938 5.63932 24.0938H25.3731C26.252 24.0938 26.9646 24.8063 26.9646 25.6852C26.9646 26.5642 26.252 27.2766 25.3731 27.2766H5.63932C4.7604 27.2766 4.04788 26.5642 4.04788 25.6852Z" fill="white"/>
</svg>
