<svg width="16" height="16" viewBox="0 0 16 16" fill="none" xmlns="http://www.w3.org/2000/svg">
<path d="M7.91328 1.3331C6.55833 1.33375 5.23468 1.74059 4.11328 2.5011L3.13795 1.5291C3.04476 1.43594 2.92604 1.37248 2.7968 1.34674C2.66756 1.32101 2.53359 1.33416 2.41182 1.38452C2.29005 1.43489 2.18593 1.52021 2.11263 1.62971C2.03932 1.73922 2.00011 1.86799 1.99995 1.99977V5.3331C1.99995 5.50991 2.07019 5.67948 2.19521 5.80451C2.32024 5.92953 2.48981 5.99977 2.66662 5.99977H5.99995C6.13178 5.99974 6.26065 5.96063 6.37026 5.88737C6.47986 5.81411 6.56529 5.71 6.61574 5.5882C6.66618 5.4664 6.67939 5.33238 6.65367 5.20308C6.62796 5.07378 6.56449 4.955 6.47128 4.86177L6.05728 4.44777C6.67354 4.13261 7.35978 3.97925 8.05157 4.00209C8.74336 4.02493 9.41799 4.22321 10.0121 4.57833C10.6062 4.93344 11.1004 5.43374 11.4481 6.03222C11.7958 6.63071 11.9857 7.30775 12 7.99977C11.9773 8.98221 11.6022 9.92377 10.9432 10.6527C10.2841 11.3817 9.385 11.8494 8.40981 11.9707C7.43461 12.0919 6.44833 11.8585 5.63085 11.3132C4.81336 10.7678 4.21916 9.94675 3.95662 8.99977C3.86348 8.66191 3.64107 8.37431 3.33751 8.19918C3.03394 8.02405 2.67363 7.97548 2.33453 8.06398C1.99543 8.15248 1.7048 8.37093 1.52554 8.67207C1.34627 8.97321 1.29277 9.33282 1.37662 9.6731C1.80264 11.2478 2.7835 12.6154 4.13839 13.5238C5.49329 14.4323 7.1309 14.8204 8.7494 14.6166C10.3679 14.4129 11.8582 13.6309 12.9456 12.4149C14.033 11.199 14.6442 9.63089 14.6666 7.99977C14.653 6.22082 13.9344 4.51988 12.6684 3.27009C11.4023 2.02029 9.69226 1.32369 7.91328 1.3331Z" fill="#173C73"/>
</svg>
