<svg width="18" height="18" viewBox="0 0 18 18" fill="none" xmlns="http://www.w3.org/2000/svg">
<g clip-path="url(#clip0_240_577)">
<path d="M16.7344 2.67603H1.26562C0.930075 2.6764 0.608374 2.80986 0.371104 3.04713C0.133834 3.2844 0.000372214 3.6061 0 3.94165L0 14.0585C0.000372214 14.394 0.133834 14.7157 0.371104 14.953C0.608374 15.1903 0.930075 15.3237 1.26562 15.3241H16.7344C17.0699 15.3237 17.3916 15.1903 17.6289 14.953C17.8662 14.7157 17.9996 14.394 18 14.0585V3.94162C17.9996 3.60607 17.8662 3.28438 17.6289 3.04712C17.3916 2.80985 17.0699 2.6764 16.7344 2.67603ZM9 9.63559L2.20328 3.80103H15.7967L9 9.63559ZM6.4157 8.89981L1.125 13.4415V4.35804L6.4157 8.89981ZM7.27928 9.64115L8.6336 10.8037C8.7356 10.8913 8.86558 10.9394 9 10.9394C9.13442 10.9394 9.2644 10.8913 9.3664 10.8037L10.7207 9.64115L16.0302 14.199H1.96973L7.27928 9.64115ZM11.5843 8.89981L16.875 4.35804V13.4416L11.5843 8.89981Z" fill="white"/>
</g>
<defs>
<clipPath id="clip0_240_577">
<rect width="18" height="18" fill="white"/>
</clipPath>
</defs>
</svg>
