<svg width="18" height="18" viewBox="0 0 18 18" fill="none" xmlns="http://www.w3.org/2000/svg">
<path fill-rule="evenodd" clip-rule="evenodd" d="M9 3.9375C7.6545 3.9375 6.5625 5.0295 6.5625 6.375C6.5625 7.7205 7.6545 8.8125 9 8.8125C10.3455 8.8125 11.4375 7.7205 11.4375 6.375C11.4375 5.0295 10.3455 3.9375 9 3.9375ZM9 5.0625C9.7245 5.0625 10.3125 5.6505 10.3125 6.375C10.3125 7.0995 9.7245 7.6875 9 7.6875C8.2755 7.6875 7.6875 7.0995 7.6875 6.375C7.6875 5.6505 8.2755 5.0625 9 5.0625Z" fill="white"/>
<path fill-rule="evenodd" clip-rule="evenodd" d="M9 0.9375C5.89575 0.9375 3.375 3.45825 3.375 6.5625C3.375 8.01825 3.927 9.47775 4.68975 10.7828C5.7915 12.6667 7.32525 14.2245 8.115 14.9633C8.11725 14.9648 8.11875 14.9663 8.12025 14.9678C8.619 15.4223 9.38175 15.4222 9.87975 14.967C9.88125 14.9655 9.88275 14.9648 9.88425 14.9633C10.6747 14.2245 12.2085 12.6667 13.3102 10.7828C14.073 9.47775 14.625 8.01825 14.625 6.5625C14.625 3.45825 12.1042 0.9375 9 0.9375ZM9 2.0625C11.4832 2.0625 13.5 4.07925 13.5 6.5625C13.5 7.82475 13.0005 9.084 12.339 10.215C11.3055 11.9827 9.864 13.4423 9.12 14.1375C9.0525 14.1982 8.95125 14.199 8.88225 14.1405C8.13525 13.4423 6.6945 11.982 5.661 10.215C4.9995 9.084 4.5 7.82475 4.5 6.5625C4.5 4.07925 6.51675 2.0625 9 2.0625Z" fill="white"/>
<path fill-rule="evenodd" clip-rule="evenodd" d="M4.5 17.0625H13.5C13.8105 17.0625 14.0625 16.8105 14.0625 16.5C14.0625 16.1895 13.8105 15.9375 13.5 15.9375H4.5C4.1895 15.9375 3.9375 16.1895 3.9375 16.5C3.9375 16.8105 4.1895 17.0625 4.5 17.0625Z" fill="white"/>
</svg>
