<svg width="18" height="18" viewBox="0 0 18 18" fill="none" xmlns="http://www.w3.org/2000/svg">
<g clip-path="url(#clip0_240_587)">
<path d="M15.5021 16.6629H5.16498C4.99449 16.6629 4.83097 16.5951 4.71041 16.4746C4.58985 16.354 4.52213 16.1905 4.52213 16.02C4.52213 15.8495 4.58985 15.686 4.71041 15.5654C4.83097 15.4449 4.99449 15.3771 5.16498 15.3771H15.5021C15.7639 15.3995 16.024 15.3183 16.2266 15.1509C16.4292 14.9836 16.5581 14.7436 16.5857 14.4823V7.03029C16.558 6.76909 16.429 6.52916 16.2265 6.36196C16.0239 6.19477 15.7638 6.11363 15.5021 6.13595C15.3316 6.13595 15.1681 6.06822 15.0476 5.94766C14.927 5.8271 14.8593 5.66359 14.8593 5.49309C14.8593 5.32259 14.927 5.15908 15.0476 5.03852C15.1681 4.91796 15.3316 4.85023 15.5021 4.85023C16.105 4.82681 16.6926 5.04296 17.1365 5.45146C17.5805 5.85996 17.8447 6.42758 17.8714 7.03029V14.4818C17.8448 15.0846 17.5807 15.6524 17.1367 16.0611C16.6928 16.4698 16.1051 16.6861 15.5021 16.6629Z" fill="white"/>
<path d="M7.47258 6.13593H5.16498C4.99449 6.13593 4.83097 6.0682 4.71041 5.94765C4.58985 5.82709 4.52213 5.66357 4.52213 5.49308C4.52213 5.32258 4.58985 5.15907 4.71041 5.03851C4.83097 4.91795 4.99449 4.85022 5.16498 4.85022H7.47258C7.64308 4.85022 7.80659 4.91795 7.92715 5.03851C8.04771 5.15907 8.11544 5.32258 8.11544 5.49308C8.11544 5.66357 8.04771 5.82709 7.92715 5.94765C7.80659 6.0682 7.64308 6.13593 7.47258 6.13593Z" fill="white"/>
<path d="M3.65143 17.3083H2.28394C1.71268 17.307 1.16516 17.0796 0.761215 16.6756C0.357269 16.2717 0.129793 15.7242 0.128571 15.1529V5.72346C0.129929 5.15229 0.357465 4.6049 0.761396 4.20107C1.16533 3.79723 1.71277 3.56983 2.28394 3.5686H3.65143C4.2226 3.56983 4.77004 3.79723 5.17397 4.20107C5.57791 4.6049 5.80544 5.15229 5.8068 5.72346V15.1529C5.80558 15.7242 5.5781 16.2717 5.17415 16.6756C4.77021 17.0796 4.22269 17.307 3.65143 17.3083ZM2.28394 4.85432C2.05343 4.85445 1.83238 4.94605 1.66933 5.109C1.50629 5.27195 1.41456 5.49294 1.41428 5.72346V15.1529C1.41442 15.3835 1.50609 15.6046 1.66915 15.7677C1.83221 15.9307 2.05334 16.0224 2.28394 16.0225H3.65143C3.88199 16.0223 4.10303 15.9306 4.26607 15.7675C4.4291 15.6045 4.52081 15.3835 4.52109 15.1529V5.72346C4.52068 5.49299 4.42891 5.27208 4.26589 5.10915C4.10287 4.94623 3.8819 4.85459 3.65143 4.85432H2.28394Z" fill="white"/>
<path d="M14.7379 8.54336H7.65564C7.48515 8.54336 7.32163 8.47564 7.20108 8.35508C7.08052 8.23452 7.01279 8.071 7.01279 7.90051V1.33719C7.01279 1.1667 7.08052 1.00318 7.20108 0.882624C7.32163 0.762065 7.48515 0.694336 7.65564 0.694336H14.7379C14.9084 0.694336 15.0719 0.762065 15.1924 0.882624C15.313 1.00318 15.3807 1.1667 15.3807 1.33719V7.90051C15.3807 8.071 15.313 8.23452 15.1924 8.35508C15.0719 8.47564 14.9084 8.54336 14.7379 8.54336ZM8.2985 7.25765H14.095V1.97748H8.2985V7.25765Z" fill="white"/>
<path d="M8.54539 11.3991C8.71143 11.3925 8.86847 11.3218 8.9836 11.202C9.09874 11.0822 9.16304 10.9224 9.16304 10.7563C9.16304 10.5901 9.09874 10.4303 8.9836 10.3105C8.86847 10.1907 8.71143 10.12 8.54539 10.1134C8.37934 10.12 8.2223 10.1907 8.10717 10.3105C7.99203 10.4303 7.92773 10.5901 7.92773 10.7563C7.92773 10.9224 7.99203 11.0822 8.10717 11.202C8.2223 11.3218 8.37934 11.3925 8.54539 11.3991Z" fill="white"/>
<path d="M11.197 11.3991C11.3631 11.3925 11.5201 11.3218 11.6352 11.202C11.7504 11.0822 11.8147 10.9224 11.8147 10.7563C11.8147 10.5901 11.7504 10.4303 11.6352 10.3105C11.5201 10.1907 11.3631 10.12 11.197 10.1134C11.031 10.12 10.8739 10.1907 10.7588 10.3105C10.6437 10.4303 10.5794 10.5901 10.5794 10.7563C10.5794 10.9224 10.6437 11.0822 10.7588 11.202C10.8739 11.3218 11.031 11.3925 11.197 11.3991Z" fill="white"/>
<path d="M13.8487 11.3991C14.0147 11.3925 14.1718 11.3218 14.2869 11.202C14.4021 11.0822 14.4664 10.9224 14.4664 10.7563C14.4664 10.5901 14.4021 10.4303 14.2869 10.3105C14.1718 10.1907 14.0147 10.12 13.8487 10.1134C13.6827 10.12 13.5256 10.1907 13.4105 10.3105C13.2953 10.4303 13.231 10.5901 13.231 10.7563C13.231 10.9224 13.2953 11.0822 13.4105 11.202C13.5256 11.3218 13.6827 11.3925 13.8487 11.3991Z" fill="white"/>
<path d="M8.54539 13.5515C8.71143 13.5448 8.86847 13.4742 8.9836 13.3543C9.09874 13.2345 9.16304 13.0748 9.16304 12.9086C9.16304 12.7424 9.09874 12.5827 8.9836 12.4629C8.86847 12.343 8.71143 12.2724 8.54539 12.2657C8.37934 12.2724 8.2223 12.343 8.10717 12.4629C7.99203 12.5827 7.92773 12.7424 7.92773 12.9086C7.92773 13.0748 7.99203 13.2345 8.10717 13.3543C8.2223 13.4742 8.37934 13.5448 8.54539 13.5515Z" fill="white"/>
<path d="M11.197 13.5515C11.3631 13.5448 11.5201 13.4742 11.6352 13.3543C11.7504 13.2345 11.8147 13.0748 11.8147 12.9086C11.8147 12.7424 11.7504 12.5827 11.6352 12.4629C11.5201 12.343 11.3631 12.2724 11.197 12.2657C11.031 12.2724 10.8739 12.343 10.7588 12.4629C10.6437 12.5827 10.5794 12.7424 10.5794 12.9086C10.5794 13.0748 10.6437 13.2345 10.7588 13.3543C10.8739 13.4742 11.031 13.5448 11.197 13.5515Z" fill="white"/>
<path d="M13.8487 13.5515C14.0147 13.5448 14.1718 13.4742 14.2869 13.3543C14.4021 13.2345 14.4664 13.0748 14.4664 12.9086C14.4664 12.7424 14.4021 12.5827 14.2869 12.4629C14.1718 12.343 14.0147 12.2724 13.8487 12.2657C13.6827 12.2724 13.5256 12.343 13.4105 12.4629C13.2953 12.5827 13.231 12.7424 13.231 12.9086C13.231 13.0748 13.2953 13.2345 13.4105 13.3543C13.5256 13.4742 13.6827 13.5448 13.8487 13.5515Z" fill="white"/>
</g>
<defs>
<clipPath id="clip0_240_587">
<rect width="18" height="18" fill="white"/>
</clipPath>
</defs>
</svg>
