<svg width="18" height="18" viewBox="0 0 18 18" fill="none" xmlns="http://www.w3.org/2000/svg">
<g clip-path="url(#clip0_240_582)">
<path d="M16.8947 12.7091C16.8649 12.6844 13.4961 10.2735 12.582 10.4316C12.1427 10.5092 11.8913 10.8084 11.3878 11.4086C11.3068 11.5054 11.1116 11.7366 10.9609 11.9014C10.6427 11.7977 10.3323 11.6714 10.0322 11.5234C8.48279 10.7691 7.23093 9.51721 6.47662 7.96781C6.32861 7.66767 6.20229 7.35732 6.09863 7.03912C6.264 6.88781 6.49575 6.69263 6.59475 6.60938C7.19156 6.10875 7.49081 5.85731 7.56844 5.41744C7.72762 4.50675 5.31563 1.13512 5.29087 1.10475C5.18103 0.948969 5.03797 0.81952 4.87202 0.725747C4.70607 0.631974 4.52137 0.576217 4.33125 0.5625C3.35362 0.5625 0.5625 4.18275 0.5625 4.79306C0.5625 4.8285 0.613688 8.43075 5.05575 12.9493C9.56925 17.3863 13.1715 17.4375 13.2069 17.4375C13.8173 17.4375 17.4375 14.6464 17.4375 13.6687C17.4238 13.4786 17.368 13.2938 17.2741 13.1278C17.1802 12.9619 17.0506 12.8189 16.8947 12.7091ZM13.1451 16.3091C12.6534 16.2686 9.63056 15.8698 5.85113 12.1567C2.11894 8.35706 1.73025 5.32575 1.69144 4.85606C2.42875 3.6988 3.3192 2.64657 4.33856 1.728C4.36106 1.7505 4.39088 1.78425 4.42913 1.82812C5.2109 2.89532 5.88436 4.03778 6.4395 5.23856C6.25897 5.42018 6.06816 5.59127 5.868 5.751C5.55761 5.9875 5.27258 6.25556 5.0175 6.55087L4.88081 6.74213L4.92131 6.97331C5.04035 7.48897 5.22267 7.98794 5.46412 8.45888C6.32919 10.2353 7.76462 11.6705 9.54113 12.5353C10.012 12.7771 10.511 12.9596 11.0267 13.0787L11.2579 13.1192L11.4491 12.9825C11.7456 12.7263 12.0147 12.4401 12.2524 12.1286C12.4284 11.9183 12.6641 11.6376 12.753 11.5583C13.9572 12.1128 15.1026 12.7871 16.1719 13.5709C16.2186 13.6102 16.2512 13.6406 16.2731 13.6603C15.3547 14.68 14.3025 15.5706 13.1451 16.308V16.3091Z" fill="white"/>
</g>
<defs>
<clipPath id="clip0_240_582">
<rect width="18" height="18" fill="white"/>
</clipPath>
</defs>
</svg>
