<svg width="16" height="16" viewBox="0 0 16 16" fill="none" xmlns="http://www.w3.org/2000/svg">
<path d="M7.91328 1.33333C6.55833 1.33398 5.23468 1.74082 4.11328 2.50133L3.13795 1.52933C3.04476 1.43616 2.92604 1.37271 2.7968 1.34697C2.66756 1.32124 2.53359 1.33439 2.41182 1.38475C2.29005 1.43511 2.18593 1.52044 2.11263 1.62994C2.03932 1.73945 2.00011 1.86822 1.99995 2V5.33333C1.99995 5.51014 2.07019 5.67971 2.19521 5.80474C2.32024 5.92976 2.48981 6 2.66662 6H5.99995C6.13178 5.99997 6.26065 5.96086 6.37026 5.8876C6.47986 5.81434 6.56529 5.71023 6.61574 5.58843C6.66618 5.46663 6.67939 5.33261 6.65367 5.20331C6.62796 5.07401 6.56449 4.95523 6.47128 4.862L6.05728 4.448C6.67354 4.13284 7.35978 3.97948 8.05157 4.00232C8.74336 4.02516 9.41799 4.22344 10.0121 4.57856C10.6062 4.93367 11.1004 5.43397 11.4481 6.03245C11.7958 6.63094 11.9857 7.30798 12 8C11.9773 8.98244 11.6022 9.924 10.9432 10.6529C10.2841 11.3819 9.385 11.8496 8.40981 11.9709C7.43461 12.0921 6.44833 11.8588 5.63085 11.3134C4.81336 10.768 4.21916 9.94698 3.95662 9C3.86348 8.66214 3.64107 8.37453 3.33751 8.19941C3.03394 8.02428 2.67363 7.97571 2.33453 8.06421C1.99543 8.15271 1.7048 8.37116 1.52554 8.6723C1.34627 8.97344 1.29277 9.33305 1.37662 9.67333C1.80264 11.248 2.7835 12.6156 4.13839 13.5241C5.49329 14.4325 7.1309 14.8207 8.7494 14.6169C10.3679 14.4131 11.8582 13.6311 12.9456 12.4152C14.033 11.1992 14.6442 9.63112 14.6666 8C14.653 6.22105 13.9344 4.52011 12.6684 3.27032C11.4023 2.02052 9.69226 1.32392 7.91328 1.33333Z" fill="white"/>
</svg>
