<svg width="15" height="15" viewBox="0 0 15 15" fill="none" xmlns="http://www.w3.org/2000/svg">
<path d="M10.9829 10.3088C11.7976 9.34525 12.2967 8.10669 12.3188 6.7542C12.3697 3.66025 9.83079 1.04195 6.73691 1.00051C3.55499 0.957994 0.957995 3.55504 1.00051 6.73703C1.04194 9.83124 3.6602 12.37 6.75435 12.319C8.10654 12.2966 9.34535 11.7976 10.3089 10.9831L13.1861 13.8604C13.3722 14.0465 13.6742 14.0465 13.8604 13.8604C14.0465 13.6742 14.0465 13.3722 13.8604 13.186L10.9832 10.3088H10.9829ZM10.3059 9.63172C10.1044 9.87867 9.87848 10.1046 9.63154 10.3061C8.82066 10.9684 7.78573 11.3658 6.65977 11.3658C4.06496 11.3658 1.95395 9.25476 1.95395 6.65989C1.95395 4.06502 4.06496 1.95397 6.65977 1.95397C9.25458 1.95397 11.3656 4.06502 11.3656 6.65989C11.3656 7.78588 10.9682 8.82083 10.3059 9.63172Z" fill="white"/>
</svg>
